<?xml version="1.0" standalone="no"?>
<!DOCTYPE svg PUBLIC "-//W3C//DTD SVG 20010904//EN"
 "http://www.w3.org/TR/2001/REC-SVG-20010904/DTD/svg10.dtd">
<svg version="1.0" xmlns="http://www.w3.org/2000/svg"
 width="1920.000000pt" height="840.000000pt" viewBox="0 0 1920.000000 840.000000"
 preserveAspectRatio="xMidYMid meet">

<g transform="translate(0.000000,840.000000) scale(0.100000,-0.100000)"
fill="#000000" stroke="none">
<path d="M3819 5562 c-24 -16 -51 -31 -59 -35 -8 -4 -31 -17 -52 -29 -20 -13
-92 -55 -160 -94 -195 -112 -527 -304 -593 -342 -33 -19 -81 -46 -107 -61
l-48 -26 0 -138 c0 -76 3 -136 8 -134 4 3 51 30 105 61 53 31 141 81 195 112
53 31 111 65 128 74 16 10 91 53 165 96 239 139 433 249 464 265 21 10 20 11
280 -138 33 -19 65 -38 70 -42 6 -5 35 -22 65 -38 30 -17 84 -47 120 -68 36
-21 94 -55 130 -75 36 -20 94 -54 130 -75 36 -21 94 -55 130 -75 36 -20 85
-49 110 -63 25 -15 48 -27 53 -27 4 0 7 60 7 133 l0 132 -33 19 c-17 11 -61
36 -97 56 -36 20 -94 54 -130 75 -36 20 -79 45 -96 55 -181 104 -307 177 -344
200 -25 15 -65 39 -90 53 -127 70 -246 140 -254 148 -17 16 -51 10 -97 -19z"/>
<path d="M12500 4330 l0 -690 115 0 115 0 0 690 0 690 -115 0 -115 0 0 -690z"/>
<path d="M16030 4753 l0 -266 -37 37 c-56 56 -164 105 -248 112 -218 19 -402
-99 -477 -307 -19 -55 -23 -84 -23 -204 0 -120 3 -150 23 -210 44 -132 153
-239 292 -285 55 -19 80 -22 166 -17 91 4 109 8 165 38 34 19 91 62 126 97 73
73 66 75 122 -32 17 -33 40 -71 50 -84 l17 -24 97 57 c53 31 97 59 97 63 0 3
-13 26 -29 51 -15 25 -47 81 -70 123 l-41 77 0 521 0 520 -115 0 -115 0 0
-267z m-155 -351 c50 -25 96 -74 126 -132 20 -39 24 -59 23 -145 0 -81 -4
-109 -22 -149 -40 -87 -104 -136 -202 -154 -181 -34 -320 93 -322 293 0 153
61 257 179 301 53 20 167 13 218 -14z"/>
<path d="M6635 4996 c-229 -46 -391 -172 -485 -380 -58 -127 -76 -321 -45
-481 43 -224 212 -416 432 -492 93 -32 276 -43 390 -24 198 34 375 166 462
346 55 114 71 188 71 337 0 189 -40 323 -136 450 -85 113 -208 196 -349 233
-84 22 -254 28 -340 11z m236 -216 c170 -32 294 -163 333 -353 20 -94 20 -144
2 -240 -44 -229 -201 -357 -435 -357 -260 1 -433 188 -434 470 0 102 15 174
55 254 89 177 274 264 479 226z"/>
<path d="M11711 4999 c-146 -22 -266 -82 -367 -183 -79 -79 -127 -160 -160
-271 -24 -79 -27 -108 -28 -230 0 -99 5 -160 17 -206 56 -225 208 -393 417
-463 70 -24 108 -30 214 -34 146 -5 232 6 334 46 77 31 212 103 212 113 0 4
-26 52 -58 106 l-57 99 -72 -43 c-248 -151 -564 -105 -695 99 -41 63 -68 173
-68 272 0 289 170 467 447 467 113 1 178 -17 295 -79 49 -25 89 -44 91 -41 2
2 29 47 60 99 l57 95 -22 17 c-50 37 -177 98 -248 118 -88 25 -270 34 -369 19z"/>
<path d="M7710 4604 c-30 -18 -74 -45 -97 -58 l-42 -25 45 -81 c24 -45 56 -99
69 -120 l25 -40 0 -500 0 -500 120 0 120 0 0 237 0 237 38 -36 c20 -20 69 -52
107 -70 67 -32 75 -33 190 -33 116 0 123 1 188 33 179 88 267 244 267 472 0
171 -43 284 -144 386 -75 75 -150 112 -250 126 -155 20 -261 -16 -375 -129
-43 -43 -78 -70 -83 -65 -10 10 -47 74 -85 150 -15 28 -30 52 -33 51 -3 -1
-30 -16 -60 -35z m611 -190 c41 -12 65 -28 100 -64 57 -61 79 -125 79 -231 0
-98 -27 -175 -80 -229 -54 -55 -100 -73 -190 -74 -120 0 -200 48 -252 153 -32
66 -33 234 -2 302 60 130 197 186 345 143z"/>
<path d="M9275 4633 c-49 -7 -127 -34 -175 -61 -99 -56 -194 -191 -219 -310
-15 -74 -14 -227 4 -291 45 -171 174 -303 340 -347 66 -18 244 -17 323 1 66
16 190 71 232 104 l25 20 -19 33 c-10 18 -32 56 -49 85 l-30 52 -41 -28 c-82
-55 -144 -74 -251 -79 -84 -3 -109 0 -157 18 -85 32 -157 126 -158 207 l0 33
368 2 367 3 -2 90 c-6 245 -133 416 -340 460 -64 14 -151 17 -218 8z m214
-218 c27 -15 59 -41 71 -57 23 -31 52 -122 42 -132 -7 -8 -487 -8 -495 0 -10
11 28 96 60 134 76 89 215 113 322 55z"/>
<path d="M10095 4630 c-4 -6 -29 -22 -58 -36 -28 -15 -68 -37 -88 -51 l-37
-25 30 -51 c17 -29 42 -72 56 -97 14 -25 34 -58 44 -75 16 -27 18 -58 18 -342
l0 -313 114 0 114 0 4 308 3 307 28 56 c83 171 338 172 397 2 9 -27 14 -131
17 -355 l5 -318 114 0 114 0 0 324 c0 178 -5 347 -10 376 -32 167 -139 268
-309 291 -152 21 -269 -21 -369 -133 -57 -64 -51 -66 -107 37 -61 112 -66 118
-80 95z"/>
<path d="M13320 4629 c-98 -17 -204 -67 -270 -130 -42 -39 -89 -115 -117 -186
-24 -61 -27 -81 -27 -193 0 -112 3 -132 27 -194 62 -157 177 -259 338 -301 94
-25 261 -17 349 17 122 47 208 124 264 237 60 119 68 320 18 445 -89 225 -323
347 -582 305z m213 -217 c99 -44 148 -129 155 -268 5 -110 -13 -177 -65 -242
-54 -66 -102 -87 -203 -87 -88 0 -135 16 -185 62 -119 106 -125 360 -12 481
25 27 87 61 132 73 45 12 128 3 178 -19z"/>
<path d="M14110 4268 c0 -204 4 -359 10 -383 31 -118 84 -191 173 -238 61 -31
65 -32 192 -32 123 0 133 1 185 28 30 16 83 56 117 90 34 33 64 59 65 56 9
-14 42 -72 70 -121 18 -32 36 -58 40 -58 4 0 29 13 55 28 27 16 69 41 95 56
l48 27 -32 57 c-18 31 -49 85 -70 120 l-38 62 0 325 0 325 -120 0 -120 0 0
-307 c0 -303 -1 -309 -24 -358 -13 -27 -32 -60 -43 -72 -75 -84 -270 -82 -330
3 -38 54 -43 98 -43 422 l0 312 -115 0 -115 0 0 -342z"/>
<path d="M3400 4526 l-55 -32 -3 -70 -3 -70 138 -79 c76 -44 152 -88 168 -98
17 -9 49 -27 73 -39 l42 -22 0 -246 0 -245 54 -33 c30 -17 60 -32 68 -32 7 0
37 14 66 30 l52 30 0 248 0 247 48 26 c26 14 108 61 182 104 74 43 147 86 162
94 26 15 28 20 28 86 l-1 70 -53 33 c-30 17 -56 32 -59 32 -3 0 -101 -54 -217
-121 l-210 -121 -58 33 c-68 38 -81 46 -240 138 -68 39 -125 71 -125 70 -1 0
-27 -15 -57 -33z"/>
<path d="M2800 3553 l1 -138 127 -71 c111 -63 400 -229 577 -332 33 -19 89
-52 125 -72 139 -79 191 -110 212 -125 38 -26 33 -28 311 137 54 32 100 58
103 58 2 0 34 18 70 40 36 22 68 40 70 40 2 0 37 19 77 43 39 24 104 62 142
84 39 22 108 63 155 90 47 28 109 63 137 79 l53 29 0 138 c0 76 -3 136 -7 134
-5 -3 -64 -37 -133 -77 -69 -40 -143 -83 -165 -95 -22 -13 -80 -46 -130 -75
-108 -63 -143 -83 -192 -111 -21 -12 -76 -44 -123 -72 -47 -27 -116 -68 -155
-90 -38 -22 -92 -53 -120 -69 l-50 -30 -60 33 c-33 18 -115 66 -183 106 -67
40 -124 73 -126 73 -2 0 -45 25 -95 55 -51 30 -94 55 -97 55 -2 0 -21 11 -42
23 -46 30 -288 170 -362 210 -30 17 -67 38 -82 49 -14 10 -29 18 -32 18 -3 0
-6 -62 -6 -137z"/>
</g>
</svg>
