<?xml version="1.0" standalone="no"?>
<!DOCTYPE svg PUBLIC "-//W3C//DTD SVG 20010904//EN"
 "http://www.w3.org/TR/2001/REC-SVG-20010904/DTD/svg10.dtd">
<svg version="1.0" xmlns="http://www.w3.org/2000/svg"
 width="636.000000pt" height="792.000000pt" viewBox="0 0 636.000000 792.000000"
 preserveAspectRatio="xMidYMid meet">

<g transform="translate(0.000000,792.000000) scale(0.100000,-0.100000)"
fill="#000000" stroke="none">
<path d="M3155 7641 c-47 -12 -99 -36 -157 -73 -29 -19 -100 -61 -158 -93 -58
-32 -163 -93 -235 -136 -189 -112 -2059 -1190 -2197 -1266 l-118 -65 0 -322
c0 -319 4 -396 22 -396 9 0 349 195 1403 805 639 370 1111 641 1321 758 56 32
114 57 130 57 15 0 75 -24 133 -54 119 -60 702 -392 765 -435 23 -16 129 -78
236 -138 107 -60 377 -215 600 -343 715 -413 1113 -640 1120 -640 17 0 21 60
26 375 l6 330 -33 19 c-70 39 -1045 600 -1389 799 -124 71 -317 185 -430 252
-113 67 -297 174 -410 237 -258 145 -419 239 -492 288 -64 42 -98 52 -143 41z"/>
<path d="M1889 4812 l-147 -87 -6 -110 c-3 -60 -7 -145 -8 -187 l-2 -78 284
-164 c157 -90 366 -210 465 -267 99 -57 224 -126 278 -154 l97 -50 0 -656 0
-656 103 -61 c57 -34 129 -73 161 -88 l57 -26 77 37 c42 20 114 57 159 83 l83
47 0 660 0 660 83 44 c85 46 415 236 786 451 117 69 220 134 228 146 18 27 28
194 19 297 l-8 77 -86 53 c-48 30 -114 69 -147 87 l-60 33 -185 -103 c-102
-56 -348 -197 -547 -312 -200 -114 -374 -213 -387 -219 -27 -13 -20 -17 -636
339 -195 112 -391 224 -435 247 l-80 43 -146 -86z"/>
<path d="M296 2543 c-3 -21 -6 -186 -6 -368 l0 -330 153 -84 c195 -109 864
-491 1352 -774 209 -121 543 -313 741 -428 199 -114 413 -239 475 -278 63 -39
122 -71 131 -71 58 0 190 69 623 325 165 98 331 193 370 213 38 19 140 77 225
127 85 51 180 105 210 120 30 15 163 92 295 170 318 187 921 537 1065 617
l115 64 -1 346 c-1 190 -6 353 -11 362 -7 13 -60 -14 -343 -178 -184 -106
-571 -329 -860 -496 -289 -167 -669 -387 -845 -490 -176 -103 -401 -233 -500
-290 -98 -57 -207 -120 -242 -141 l-63 -38 -159 88 c-87 49 -301 172 -475 275
-174 102 -334 195 -356 206 -22 11 -125 71 -228 131 -103 61 -214 125 -247
142 -33 17 -136 76 -230 132 -219 131 -572 335 -795 460 -96 54 -221 126 -277
161 -55 35 -103 64 -106 64 -2 0 -7 -17 -11 -37z"/>
</g>
</svg>
