<?xml version="1.0" standalone="no"?>
<!DOCTYPE svg PUBLIC "-//W3C//DTD SVG 20010904//EN"
 "http://www.w3.org/TR/2001/REC-SVG-20010904/DTD/svg10.dtd">
<svg version="1.0" xmlns="http://www.w3.org/2000/svg"
 width="200.000000pt" height="50.000000pt" viewBox="0 0 200.000000 50.000000"
 preserveAspectRatio="xMidYMid meet">

<g transform="translate(0.000000,50.000000) scale(0.100000,-0.100000)"
fill="#000000" stroke="none">
<path d="M0 384 l0 -115 32 -27 c18 -15 38 -26 46 -24 8 2 23 -4 33 -14 11 -9
47 -34 81 -54 l61 -37 67 38 c76 44 80 45 80 22 0 -11 -23 -31 -59 -52 -44
-25 -58 -38 -53 -50 5 -13 3 -14 -10 -4 -8 7 -17 10 -20 7 -4 -3 -23 5 -45 18
-64 41 -63 40 -57 24 12 -32 -40 -16 -98 30 l-58 45 0 -95 0 -96 309 0 310 0
3 90 c2 59 -1 90 -8 90 -5 0 -22 13 -37 28 -45 47 -35 127 19 155 23 12 26 20
27 75 l2 62 -312 0 -313 0 0 -116z m331 25 c46 -28 69 -47 69 -60 0 -11 -2
-19 -5 -19 -2 0 -35 19 -72 41 -49 30 -71 39 -83 32 -8 -5 -41 -24 -72 -42
-54 -30 -58 -31 -58 -12 0 14 20 32 68 60 37 23 71 41 75 41 5 0 40 -19 78
-41z m-41 -39 c0 -5 -2 -10 -4 -10 -3 0 -8 5 -11 10 -3 6 -1 10 4 10 6 0 11
-4 11 -10z m0 -40 c0 -5 -2 -10 -4 -10 -3 0 -8 5 -11 10 -3 6 -1 10 4 10 6 0
11 -4 11 -10z m-61 -34 c25 -13 31 -13 50 0 21 15 51 13 51 -4 0 -4 -13 -16
-30 -25 -30 -18 -41 -46 -17 -48 10 0 9 -2 0 -6 -7 -2 -13 -11 -13 -19 0 -9 5
-12 10 -9 6 3 10 1 10 -4 0 -11 -27 -10 -46 1 -5 4 -9 21 -8 38 2 25 -3 33
-27 46 -16 8 -29 21 -29 29 0 19 13 19 49 1z m61 -266 c0 -5 -2 -10 -4 -10 -3
0 -8 5 -11 10 -3 6 -1 10 4 10 6 0 11 -4 11 -10z"/>
<path d="M640 440 c0 -59 0 -60 35 -75 79 -32 78 -148 -2 -177 l-33 -12 0 -88
0 -88 680 0 680 0 0 250 0 250 -680 0 -680 0 0 -60z m499 -26 c2 -2 2 -6 0 -9
-8 -7 -49 7 -49 17 0 8 38 2 49 -8z m296 -135 c0 -77 -3 -94 -15 -94 -12 0
-16 17 -18 84 -3 92 1 115 21 108 8 -2 12 -31 12 -98z m473 20 c2 -41 7 -78
12 -83 6 -6 5 -15 -2 -23 -8 -10 -14 -11 -25 -2 -10 9 -17 9 -25 1 -35 -35
-98 5 -98 61 0 46 29 71 74 64 29 -5 33 -3 29 14 -7 25 4 52 20 47 8 -3 13
-31 15 -79z m-537 60 c16 -8 18 -13 9 -24 -9 -11 -17 -12 -30 -5 -28 15 -48
12 -70 -10 -24 -24 -26 -63 -3 -85 13 -13 27 -16 59 -11 31 4 44 2 47 -8 8
-21 -46 -40 -88 -32 -71 14 -96 107 -44 162 25 26 84 33 120 13z m188 -44 c49
-25 56 -82 15 -114 -53 -41 -114 -13 -114 52 0 38 24 65 68 76 2 1 16 -6 31
-14z m-773 -6 c4 -8 9 -8 17 0 12 12 56 14 73 3 21 -14 34 -52 28 -77 -9 -34
-47 -59 -79 -51 -22 6 -25 3 -25 -19 0 -18 -5 -25 -19 -25 -17 0 -20 9 -23 83
-2 45 -2 85 0 90 5 10 20 9 28 -4z m246 -6 c10 -9 18 -27 18 -40 0 -21 -4 -23
-52 -23 -49 -1 -52 -2 -33 -16 12 -9 30 -12 46 -9 33 7 47 -10 20 -24 -31 -17
-69 -13 -91 9 -24 24 -26 77 -3 102 20 22 70 23 95 1z m64 6 c4 -8 9 -8 17 0
15 15 60 14 75 -1 17 -17 16 -131 0 -126 -7 3 -15 27 -18 54 -4 38 -9 50 -24
52 -25 5 -36 -14 -36 -65 0 -32 -4 -43 -15 -43 -15 0 -19 15 -15 57 1 12 -4
31 -10 43 -16 30 8 58 26 29z m554 -33 c0 -51 20 -76 45 -56 9 8 15 30 15 57
0 37 3 44 18 41 13 -2 18 -17 23 -63 5 -60 -4 -83 -26 -65 -6 5 -17 5 -25 0
-22 -14 -47 -12 -64 6 -22 21 -23 124 -1 124 11 0 15 -12 15 -44z m-632 -154
c21 -16 22 -20 8 -31 -21 -18 -66 13 -66 46 0 26 10 23 58 -15z m62 -57 c21
-22 21 -25 6 -31 -19 -7 -69 33 -60 47 9 16 30 10 54 -16z m30 -45 c0 -5 -5
-10 -11 -10 -5 0 -7 5 -4 10 3 6 8 10 11 10 2 0 4 -4 4 -10z"/>
<path d="M1817 284 c-13 -13 -7 -62 8 -68 29 -11 46 5 43 38 -2 22 -9 32 -23
34 -12 2 -24 0 -28 -4z"/>
<path d="M1501 271 c-13 -23 -6 -47 16 -55 23 -9 44 14 41 43 -4 33 -42 41
-57 12z"/>
<path d="M804 276 c-16 -42 24 -83 52 -54 25 25 11 68 -22 68 -13 0 -27 -6
-30 -14z"/>
<path d="M960 280 c0 -5 14 -10 31 -10 17 0 28 4 24 10 -3 6 -17 10 -31 10
-13 0 -24 -4 -24 -10z"/>
<path d="M640 280 c0 -67 17 -80 45 -36 19 29 11 72 -15 86 -29 15 -30 14 -30
-50z"/>
<path d="M595 320 c-18 -28 -1 -100 24 -100 3 0 4 25 3 55 -4 52 -13 68 -27
45z"/>
</g>
</svg>
