<svg version="1.0" xmlns="http://www.w3.org/2000/svg" width="2560" height="1120" viewBox="0 0 1920 840"><path d="M381.9 283.8c-2.4 1.6-5.1 3.1-5.9 3.5-.8.4-3.1 1.7-5.2 2.9-2 1.3-9.2 5.5-16 9.4-19.5 11.2-52.7 30.4-59.3 34.2-3.3 1.9-8.1 4.6-10.7 6.1l-4.8 2.6v13.8c0 7.6.3 13.6.8 13.4.4-.3 5.1-3 10.5-6.1 5.3-3.1 14.1-8.1 19.5-11.2 5.3-3.1 11.1-6.5 12.8-7.4 1.6-1 9.1-5.3 16.5-9.6 23.9-13.9 43.3-24.9 46.4-26.5 2.1-1 2-1.1 28 13.8 3.3 1.9 6.5 3.8 7 4.2.6.5 3.5 2.2 6.5 3.8 3 1.7 8.4 4.7 12 6.8 3.6 2.1 9.4 5.5 13 7.5 3.6 2 9.4 5.4 13 7.5 3.6 2.1 9.4 5.5 13 7.5 3.6 2 8.5 4.9 11 6.3 2.5 1.5 4.8 2.7 5.3 2.7.4 0 .7-6 .7-13.3v-13.2l-3.3-1.9c-1.7-1.1-6.1-3.6-9.7-5.6-3.6-2-9.4-5.4-13-7.5-3.6-2-7.9-4.5-9.6-5.5-18.1-10.4-30.7-17.7-34.4-20-2.5-1.5-6.5-3.9-9-5.3-12.7-7-24.6-14-25.4-14.8-1.7-1.6-5.1-1-9.7 1.9zM1250 407v69h23V338h-23v69zM1603 364.7v26.6l-3.7-3.7c-5.6-5.6-16.4-10.5-24.8-11.2-21.8-1.9-40.2 9.9-47.7 30.7-1.9 5.5-2.3 8.4-2.3 20.4 0 12 .3 15 2.3 21 4.4 13.2 15.3 23.9 29.2 28.5 5.5 1.9 8 2.2 16.6 1.7 9.1-.4 10.9-.8 16.5-3.8 3.4-1.9 9.1-6.2 12.6-9.7 7.3-7.3 6.6-7.5 12.2 3.2 1.7 3.3 4 7.1 5 8.4l1.7 2.4 9.7-5.7c5.3-3.1 9.7-5.9 9.7-6.3 0-.3-1.3-2.6-2.9-5.1-1.5-2.5-4.7-8.1-7-12.3l-4.1-7.7V338h-23v26.7zm-15.5 35.1c5 2.5 9.6 7.4 12.6 13.2 2 3.9 2.4 5.9 2.3 14.5 0 8.1-.4 10.9-2.2 14.9-4 8.7-10.4 13.6-20.2 15.4-18.1 3.4-32-9.3-32.2-29.3 0-15.3 6.1-25.7 17.9-30.1 5.3-2 16.7-1.3 21.8 1.4zM663.5 340.4c-22.9 4.6-39.1 17.2-48.5 38-5.8 12.7-7.6 32.1-4.5 48.1 4.3 22.4 21.2 41.6 43.2 49.2 9.3 3.2 27.6 4.3 39 2.4 19.8-3.4 37.5-16.6 46.2-34.6 5.5-11.4 7.1-18.8 7.1-33.7 0-18.9-4-32.3-13.6-45-8.5-11.3-20.8-19.6-34.9-23.3-8.4-2.2-25.4-2.8-34-1.1zm23.6 21.6c17 3.2 29.4 16.3 33.3 35.3 2 9.4 2 14.4.2 24-4.4 22.9-20.1 35.7-43.5 35.7-26-.1-43.3-18.8-43.4-47 0-10.2 1.5-17.4 5.5-25.4 8.9-17.7 27.4-26.4 47.9-22.6zM1171.1 340.1c-14.6 2.2-26.6 8.2-36.7 18.3-7.9 7.9-12.7 16-16 27.1-2.4 7.9-2.7 10.8-2.8 23 0 9.9.5 16 1.7 20.6 5.6 22.5 20.8 39.3 41.7 46.3 7 2.4 10.8 3 21.4 3.4 14.6.5 23.2-.6 33.4-4.6 7.7-3.1 21.2-10.3 21.2-11.3 0-.4-2.6-5.2-5.8-10.6l-5.7-9.9-7.2 4.3c-24.8 15.1-56.4 10.5-69.5-9.9-4.1-6.3-6.8-17.3-6.8-27.2 0-28.9 17-46.7 44.7-46.7 11.3-.1 17.8 1.7 29.5 7.9 4.9 2.5 8.9 4.4 9.1 4.1.2-.2 2.9-4.7 6-9.9l5.7-9.5-2.2-1.7c-5-3.7-17.7-9.8-24.8-11.8-8.8-2.5-27-3.4-36.9-1.9zM771 379.6c-3 1.8-7.4 4.5-9.7 5.8l-4.2 2.5 4.5 8.1c2.4 4.5 5.6 9.9 6.9 12l2.5 4v100h24v-47.4l3.8 3.6c2 2 6.9 5.2 10.7 7 6.7 3.2 7.5 3.3 19 3.3 11.6 0 12.3-.1 18.8-3.3 17.9-8.8 26.7-24.4 26.7-47.2 0-17.1-4.3-28.4-14.4-38.6-7.5-7.5-15-11.2-25-12.6-15.5-2-26.1 1.6-37.5 12.9-4.3 4.3-7.8 7-8.3 6.5-1-1-4.7-7.4-8.5-15-1.5-2.8-3-5.2-3.3-5.1-.3.1-3 1.6-6 3.5zm61.1 19c4.1 1.2 6.5 2.8 10 6.4 5.7 6.1 7.9 12.5 7.9 23.1 0 9.8-2.7 17.5-8 22.9-5.4 5.5-10 7.3-19 7.4-12 0-20-4.8-25.2-15.3-3.2-6.6-3.3-23.4-.2-30.2 6-13 19.7-18.6 34.5-14.3zM927.5 376.7c-4.9.7-12.7 3.4-17.5 6.1-9.9 5.6-19.4 19.1-21.9 31-1.5 7.4-1.4 22.7.4 29.1 4.5 17.1 17.4 30.3 34 34.7 6.6 1.8 24.4 1.7 32.3-.1 6.6-1.6 19-7.1 23.2-10.4l2.5-2-1.9-3.3c-1-1.8-3.2-5.6-4.9-8.5l-3-5.2-4.1 2.8c-8.2 5.5-14.4 7.4-25.1 7.9-8.4.3-10.9 0-15.7-1.8-8.5-3.2-15.7-12.6-15.8-20.7V433l36.8-.2 36.7-.3-.2-9c-.6-24.5-13.3-41.6-34-46-6.4-1.4-15.1-1.7-21.8-.8zm21.4 21.8c2.7 1.5 5.9 4.1 7.1 5.7 2.3 3.1 5.2 12.2 4.2 13.2-.7.8-48.7.8-49.5 0-1-1.1 2.8-9.6 6-13.4 7.6-8.9 21.5-11.3 32.2-5.5zM1009.5 377c-.4.6-2.9 2.2-5.8 3.6-2.8 1.5-6.8 3.7-8.8 5.1l-3.7 2.5 3 5.1c1.7 2.9 4.2 7.2 5.6 9.7 1.4 2.5 3.4 5.8 4.4 7.5 1.6 2.7 1.8 5.8 1.8 34.2V476h22.8l.4-30.8.3-30.7 2.8-5.6c8.3-17.1 33.8-17.2 39.7-.2.9 2.7 1.4 13.1 1.7 35.5l.5 31.8h22.8v-32.4c0-17.8-.5-34.7-1-37.6-3.2-16.7-13.9-26.8-30.9-29.1-15.2-2.1-26.9 2.1-36.9 13.3-5.7 6.4-5.1 6.6-10.7-3.7-6.1-11.2-6.6-11.8-8-9.5zM1332 377.1c-9.8 1.7-20.4 6.7-27 13-4.2 3.9-8.9 11.5-11.7 18.6-2.4 6.1-2.7 8.1-2.7 19.3 0 11.2.3 13.2 2.7 19.4 6.2 15.7 17.7 25.9 33.8 30.1 9.4 2.5 26.1 1.7 34.9-1.7 12.2-4.7 20.8-12.4 26.4-23.7 6-11.9 6.8-32 1.8-44.5-8.9-22.5-32.3-34.7-58.2-30.5zm21.3 21.7c9.9 4.4 14.8 12.9 15.5 26.8.5 11-1.3 17.7-6.5 24.2-5.4 6.6-10.2 8.7-20.3 8.7-8.8 0-13.5-1.6-18.5-6.2-11.9-10.6-12.5-36-1.2-48.1 2.5-2.7 8.7-6.1 13.2-7.3 4.5-1.2 12.8-.3 17.8 1.9zM1411 413.2c0 20.4.4 35.9 1 38.3 3.1 11.8 8.4 19.1 17.3 23.8 6.1 3.1 6.5 3.2 19.2 3.2 12.3 0 13.3-.1 18.5-2.8 3-1.6 8.3-5.6 11.7-9 3.4-3.3 6.4-5.9 6.5-5.6.9 1.4 4.2 7.2 7 12.1 1.8 3.2 3.6 5.8 4 5.8.4 0 2.9-1.3 5.5-2.8 2.7-1.6 6.9-4.1 9.5-5.6l4.8-2.7-3.2-5.7c-1.8-3.1-4.9-8.5-7-12l-3.8-6.2v-65h-24v30.7c0 30.3-.1 30.9-2.4 35.8-1.3 2.7-3.2 6-4.3 7.2-7.5 8.4-27 8.2-33-.3-3.8-5.4-4.3-9.8-4.3-42.2V379h-23v34.2zM340 387.4l-5.5 3.2-.3 7-.3 7 13.8 7.9c7.6 4.4 15.2 8.8 16.8 9.8 1.7.9 4.9 2.7 7.3 3.9l4.2 2.2v49.1l5.4 3.3c3 1.7 6 3.2 6.8 3.2.7 0 3.7-1.4 6.6-3l5.2-3v-49.5l4.8-2.6c2.6-1.4 10.8-6.1 18.2-10.4 7.4-4.3 14.7-8.6 16.2-9.4 2.6-1.5 2.8-2 2.8-8.6l-.1-7-5.3-3.3c-3-1.7-5.6-3.2-5.9-3.2-.3 0-10.1 5.4-21.7 12.1l-21 12.1-5.8-3.3c-6.8-3.8-8.1-4.6-24-13.8-6.8-3.9-12.5-7.1-12.5-7-.1 0-2.7 1.5-5.7 3.3z"/><path d="m280 484.7.1 13.8 12.7 7.1c11.1 6.3 40 22.9 57.7 33.2 3.3 1.9 8.9 5.2 12.5 7.2 13.9 7.9 19.1 11 21.2 12.5 3.8 2.6 3.3 2.8 31.1-13.7 5.4-3.2 10-5.8 10.3-5.8.2 0 3.4-1.8 7-4s6.8-4 7-4c.2 0 3.7-1.9 7.7-4.3 3.9-2.4 10.4-6.2 14.2-8.4 3.9-2.2 10.8-6.3 15.5-9 4.7-2.8 10.9-6.3 13.7-7.9l5.3-2.9v-13.8c0-7.6-.3-13.6-.7-13.4-.5.3-6.4 3.7-13.3 7.7s-14.3 8.3-16.5 9.5c-2.2 1.3-8 4.6-13 7.5-10.8 6.3-14.3 8.3-19.2 11.1-2.1 1.2-7.6 4.4-12.3 7.2-4.7 2.7-11.6 6.8-15.5 9-3.8 2.2-9.2 5.3-12 6.9l-5 3-6-3.3c-3.3-1.8-11.5-6.6-18.3-10.6-6.7-4-12.4-7.3-12.6-7.3-.2 0-4.5-2.5-9.5-5.5-5.1-3-9.4-5.5-9.7-5.5-.2 0-2.1-1.1-4.2-2.3-4.6-3-28.8-17-36.2-21-3-1.7-6.7-3.8-8.2-4.9-1.4-1-2.9-1.8-3.2-1.8-.3 0-.6 6.2-.6 13.7z"/></svg>